PathFileType	4	(X/Y/Z)	/Users/itak/Documents/Research/Walk-IL/dataset/trc/00139_00007.trc
DataRate	CameraRate	NumFrames	NumMarkers	Units	OrigDataRate	OrigDataStartFrame	OrigNumFrames
100.000000	100.000000	4	53	mm	100.000000	341	547
Frame#	Time	RPSI			LPSI			L3			STRN			T10			C7			CLAV			RBAK			LBAK			LSHO			LUPA			LAEL			LAOL			LWTS			LWPS			LFRA			LIFD			LHPS			LHTS			RSHO			RUPA			RAEL			RAOL			RWTS			RWPS			RFRA			RIFD			RHTS			RHPS			RBHD			LFHD			RFHD			LBHD			LHIP			RHIP			RASI			LASI			LKNE			LTHI			LANK			LTIP			LTOE			LMT1			LMT5			LHEE			RKNE			RTHI			RANK			RTIP			RTOE			RMT1			RMT5			RHEE			
		X1	Y1	Z1	X2	Y2	Z2	X3	Y3	Z3	X4	Y4	Z4	X5	Y5	Z5	X6	Y6	Z6	X7	Y7	Z7	X8	Y8	Z8	X9	Y9	Z9	X10	Y10	Z10	X11	Y11	Z11	X12	Y12	Z12	X13	Y13	Z13	X14	Y14	Z14	X15	Y15	Z15	X16	Y16	Z16	X17	Y17	Z17	X18	Y18	Z18	X19	Y19	Z19	X20	Y20	Z20	X21	Y21	Z21	X22	Y22	Z22	X23	Y23	Z23	X24	Y24	Z24	X25	Y25	Z25	X26	Y26	Z26	X27	Y27	Z27	X28	Y28	Z28	X29	Y29	Z29	X30	Y30	Z30	X31	Y31	Z31	X32	Y32	Z32	X33	Y33	Z33	X34	Y34	Z34	X35	Y35	Z35	X36	Y36	Z36	X37	Y37	Z37	X38	Y38	Z38	X39	Y39	Z39	X40	Y40	Z40	X41	Y41	Z41	X42	Y42	Z42	X43	Y43	Z43	X44	Y44	Z44	X45	Y45	Z45	X46	Y46	Z46	X47	Y47	Z47	X48	Y48	Z48	X49	Y49	Z49	X50	Y50	Z50	X51	Y51	Z51	X52	Y52	Z52	X53	Y53	Z53	

342	3.41	462.1614379882812	1119.187866210938	901.3623657226562	364.73046875	1113.292846679688	808.558837890625	407.2540588378906	1152.149169921875	857.3016357421875	572.83447265625	1344.296020507812	693.9107055664062	401.4053955078125	1306.41162109375	877.8400268554688	420.2403564453125	1596.729736328125	830.370361328125	546.6461791992188	1480.65380859375	708.5343017578125	444.0079040527344	1419.20166015625	939.5283203125	339.6909790039062	1575.48876953125	766.6453247070312	346.8723449707031	1553.621704101562	658.0276489257812	277.0329895019531	1421.881713867188	637.52001953125	255.3426361083984	1204.966796875	630.687255859375	264.0275573730469	1196.57568359375	719.1249389648438	338.1467590332031	941.9808959960938	583.38134765625	270.0965881347656	919.9382934570312	635.8890380859375	256.4198608398438	1088.8076171875	619.4005737304688	352.4872436523438	746.62353515625	583.4701538085938	285.1340026855469	844.0955200195312	614.775634765625	335.4834899902344	853.3564453125	568.55029296875	589.7579345703125	1581.559326171875	911.5126342773438	628.2067260742188	1512.128173828125	969.3060913085938	680.1296997070312	1223.321533203125	1002.32470703125	598.0655517578125	1208.490966796875	949.3862915039062	798.1318359375	1001.303039550781	873.5902099609375	780.572998046875	978.1388549804688	950.6486206054688	718.7708129882812	1155.067138671875	991.736328125	847.120849609375	814.7460327148438	837.805419921875	843.0785522460938	902.9854736328125	851.3632202148438	825.8550415039062	887.5328369140625	920.7154541015625	519.201904296875	1768.6650390625	840.3807983398438	468.5232849121094	1820.928955078125	631.9451293945312	582.3626098632812	1843.069213867188	690.1026611328125	397.6820983886719	1750.23046875	785.753173828125	360.2944030761719	1025.952026367188	660.136474609375	631.8103637695312	1020.999328613281	901.6358032226562	659.7601928710938	1088.347778320312	806.4392700195312	467.7825012207031	1088.987060546875	621.7772216796875	529.745361328125	563.3331298828125	526.72705078125	445.5337829589844	686.8436279296875	569.9600830078125	562.0795288085938	42.91887664794922	565.8880004882812	498.9518127441406	296.04736328125	570.897216796875	715.0709228515625	87.42925262451172	401.7671203613281	710.361572265625	75.03404998779297	482.6469421386719	602.8204956054688	54.49007034301758	449.3326110839844	583.1549682617188	42.30274963378906	655.83984375	569.7705078125	530.8016967773438	919.0841064453125	627.6934204101562	807.4773559570312	895.4329223632812	430.2164916992188	38.62774276733398	1027.291748046875	545.1901245117188	401.0274658203125	957.128662109375	560.7246704101562	41.21227645874023	824.92724609375	488.5010986328125	36.44533157348633	841.1334228515625	543.69384765625	40.43992233276367	952.3831176757812	354.7727661132812	41.79020309448242	1032.976318359375	
343	3.42	467.4712219238281	1118.10205078125	895.1636352539062	369.8482055664062	1112.193725585938	802.6748046875	412.7378845214844	1151.00537109375	851.332275390625	577.462646484375	1343.02294921875	687.5614013671875	406.834716796875	1305.154296875	872.0469970703125	425.3083190917969	1595.481079101562	824.62646484375	551.2275390625	1479.356323242188	702.2633056640625	449.5169372558594	1417.992797851562	933.7594604492188	344.4830322265625	1574.18408203125	761.274658203125	351.1703491210938	1552.2919921875	652.6043701171875	281.2606506347656	1420.471801757812	632.56640625	259.5504455566406	1203.556884765625	626.110595703125	268.8978576660156	1195.280517578125	714.5491333007812	341.7603454589844	940.3699951171875	578.7452392578125	274.0627136230469	918.5277709960938	631.7864990234375	260.5291442871094	1087.409545898438	614.8655395507812	355.8956298828125	744.9669799804688	579.2181396484375	288.8686218261719	842.6294555664062	610.7531127929688	338.9390563964844	851.7171630859375	564.1405639648438	595.1806030273438	1580.3603515625	905.044189453125	633.9193725585938	1510.896850585938	962.6162109375	686.449462890625	1222.1142578125	995.1351318359375	604.11962890625	1207.257568359375	942.5260620117188	803.9222412109375	1000.267883300781	865.590576171875	786.8203125	977.0494384765625	942.751953125	725.0845336914062	1153.90380859375	984.2832641601562	852.8546142578125	813.7706909179688	829.449462890625	848.8273315429688	902.00048828125	843.0621948242188	832.0226440429688	886.503662109375	912.5152587890625	524.2816772460938	1767.442260742188	834.1804809570312	472.2198181152344	1819.713256835938	626.1238403320312	586.4663696289062	1841.99560546875	683.4292602539062	402.4593811035156	1748.907104492188	780.3731079101562	364.9217224121094	1024.66015625	654.3802490234375	636.9373779296875	1019.895080566406	894.8162841796875	664.8241577148438	1086.990356445312	799.9192504882812	472.3511657714844	1087.646850585938	615.6014404296875	530.6976928710938	560.726806640625	523.5011596679688	446.8859558105469	684.0144653320312	566.55908203125	575.2625732421875	41.4726676940918	549.095458984375	505.8508605957031	293.0486755371094	561.5650024414062	725.6516723632812	92.24112701416016	384.5014038085938	721.900634765625	78.09232330322266	465.1464538574219	614.447509765625	56.29751205444336	432.3784484863281	596.97607421875	39.54826354980469	638.7290649414062	572.8799438476562	529.9978637695312	914.7675170898438	631.8739013671875	806.3411865234375	889.7329711914062	429.8952331542969	39.22526931762695	1026.898193359375	547.3666381835938	400.5976867675781	953.9535522460938	560.8596801757812	41.07019424438477	824.6962280273438	488.6113586425781	36.49196243286133	841.04736328125	543.6548461914062	40.45414733886719	952.2984619140625	354.4858093261719	42.96904373168945	1032.494384765625	
344	3.43	472.6992492675781	1116.943237304688	888.72021484375	374.9569091796875	1111.078979492188	796.5366821289062	418.1532592773438	1149.840209960938	845.1340942382812	582.080810546875	1341.75830078125	681.0922241210938	412.1865844726562	1303.866333007812	866.069091796875	430.295166015625	1594.21923828125	818.75537109375	555.753173828125	1478.067749023438	695.8877563476562	454.9186401367188	1416.755004882812	927.841552734375	349.2153930664062	1572.86474609375	755.7394409179688	355.4388732910156	1550.947509765625	647.0198974609375	285.4557495117188	1419.053466796875	627.4407348632812	263.7392272949219	1202.133422851562	621.369384765625	273.7179870605469	1193.969848632812	709.8036499023438	345.3981628417969	938.7675170898438	573.9608764648438	278.0545959472656	917.114990234375	627.521484375	264.5870971679688	1085.884643554688	610.3297729492188	359.3794555664062	743.3218994140625	574.8107299804688	292.6426696777344	841.1614990234375	606.5628662109375	342.4486999511719	850.0927734375	559.5804443359375	600.4944458007812	1579.132568359375	898.498046875	639.5003662109375	1509.63134765625	955.852783203125	692.56298828125	1220.85595703125	987.8436889648438	609.97802734375	1205.9912109375	935.5665283203125	809.4500122070312	999.122314453125	857.5430908203125	792.7821655273438	975.8701782226562	934.8088989257812	731.1771240234375	1152.679077148438	976.7398681640625	858.2470092773438	812.658203125	821.085693359375	854.26953125	900.8837280273438	834.73974609375	837.8744506835938	885.3590698242188	904.2916870117188	529.293701171875	1766.19921875	827.9002075195312	475.8678283691406	1818.51806640625	620.23486328125	590.5100708007812	1840.95068359375	676.6836547851562	407.1798095703125	1747.570556640625	774.90283203125	369.6038208007812	1023.347595214844	648.357666015625	642.0762939453125	1018.840637207031	887.9603271484375	669.9230346679688	1085.671630859375	793.2683715820312	476.9966735839844	1086.299194335938	609.2372436523438	531.8578491210938	558.0485229492188	520.3477172851562	448.4317626953125	681.1756591796875	563.1432495117188	587.2970581054688	40.44260025024414	533.1483764648438	512.272705078125	290.3553466796875	552.6009521484375	735.2063598632812	97.14889526367188	368.3093872070312	732.3511962890625	81.33245849609375	448.7123413085938	625.0263061523438	58.36329650878906	416.3368225097656	609.5061645507812	37.22599029541016	622.4484252929688	576.0891723632812	529.2322387695312	910.3392333984375	636.08544921875	805.234619140625	883.9285278320312	429.587646484375	39.91997146606445	1026.508178710938	549.6019287109375	400.2343444824219	950.7149658203125	560.9981079101562	40.9443473815918	824.4839477539062	488.7443542480469	36.57344436645508	840.970703125	543.6407470703125	40.47177124023438	952.2214965820312	354.2241516113281	44.30083084106445	1031.986572265625	
345	3.44	477.8595581054688	1115.739135742188	882.0277709960938	380.0482788085938	1109.9658203125	790.14599609375	423.4862060546875	1148.663940429688	838.69873046875	586.6860961914062	1340.519897460938	674.4976806640625	417.4745483398438	1302.554809570312	859.9032592773438	435.1888732910156	1592.953491210938	812.758544921875	560.22705078125	1476.803344726562	689.4048461914062	460.2151794433594	1415.492065429688	921.7670288085938	353.8782653808594	1571.542114257812	750.044921875	359.6673583984375	1549.608642578125	641.2774658203125	289.6138000488281	1417.641723632812	622.1447143554688	267.9120178222656	1200.713256835938	616.4642944335938	278.4949340820312	1192.66162109375	704.884765625	349.0565185546875	937.187744140625	569.0248413085938	282.0548400878906	915.7208251953125	623.0859985351562	268.5919799804688	1084.2783203125	605.7958374023438	362.9283752441406	741.7072143554688	570.2491455078125	296.4549560546875	839.7047729492188	602.2054443359375	346.0019836425781	848.49365234375	554.8645629882812	605.6934204101562	1577.89013671875	891.8760375976562	644.9486694335938	1508.35009765625	949.0210571289062	698.4617919921875	1219.561401367188	980.4493408203125	615.6322631835938	1204.714721679688	928.4989013671875	814.716796875	997.884033203125	849.4537963867188	798.4558715820312	974.6175537109375	926.8229370117188	737.0402221679688	1151.407836914062	969.1077880859375	863.297607421875	811.4240112304688	812.7241821289062	859.4075927734375	899.6508178710938	826.4029541015625	843.4075317382812	884.1160278320312	896.0521240234375	534.236572265625	1764.950561523438	821.5399169921875	479.4712219238281	1817.3544921875	614.27490234375	594.4905395507812	1839.939453125	669.880859375	411.8355102539062	1746.242431640625	769.33935546875	374.3395385742188	1022.051513671875	642.0496826171875	647.2355346679688	1017.838073730469	881.1155395507812	675.05908203125	1084.405029296875	786.4666748046875	481.7139282226562	1084.9658203125	602.6775512695312	533.2572631835938	555.3485717773438	517.1661987304688	450.2334594726562	678.3977661132812	559.6311645507812	598.1092529296875	39.71268844604492	518.2471313476562	518.1917724609375	287.9500122070312	544.0885009765625	743.7155151367188	101.9345550537109	353.3490905761719	741.6840209960938	84.56272125244141	433.5052185058594	634.5112915039062	60.50798797607422	401.400634765625	620.698486328125	35.2443733215332	607.21044921875	579.4161987304688	528.5074462890625	905.7899780273438	640.344482421875	804.1683959960938	877.992431640625	429.330322265625	40.73687362670898	1026.143310546875	551.9178466796875	399.940673828125	947.4032592773438	561.1324462890625	40.82828903198242	824.2987670898438	488.8974609375	36.68368911743164	840.9080810546875	543.658935546875	40.49057769775391	952.1494750976562	354.0181884765625	45.79582595825195	1031.484252929688	
